# xmcd
#
# Track frame offsets:
#	150
#	2124
#	14799
#	30225
#	32791
#	44376
#	59465
#	60983
#	82874
#	101523
#	103677
#	124150
#	143131
#	144598
#	164177
#	168198
#	181638
#	183463
#	205919
#	208464
#	222266
#	225253
#	248916
#	266346
#	278418
#	279897
#
# Disc length: 4001 seconds
#
# Revision: 1
# Processed by: cddbd v1.5.2PL0 Copyright (c) Steve Scherf et al.
# Submitted via: audiograbber 1.81.02
#
DISCID=6a0f9f1a
DTITLE=Spedition Sack - Sauerlandlinie A45
DYEAR=2010
DGENRE=Country
TTITLE0=Mit Weste und Wampe
TTITLE1=Der Wilde Westen
TTITLE2=Hello Again
TTITLE3=Klarer Bruni
TTITLE4=Les Champs Elysées
TTITLE5=County Roads
TTITLE6=Im Tanga zur Tanke
TTITLE7=Kierspe Bahnhof
TTITLE8=Ich mag Steffie Graf
TTITLE9=Horny
TTITLE10=Und es war Sommer
TTITLE11=Über 7 Brücken 
TTITLE12=Frühstück in Feinripp
TTITLE13=Wann wirds mal wieder richtig Sommer
TTITLE14=Spediderm
TTITLE15=Seemann lass uns träumen
TTITLE16=Im weißen Hai an's Arschgeweih
TTITLE17=Hinter'm Horizont
TTITLE18=Broiler 1
TTITLE19=Über den Wolken
TTITLE20=Prosäcko
TTITLE21=Tränen lügen nicht
TTITLE22=Wunder gibt es immer wieder
TTITLE23=Stand By Your Man
TTITLE24=Kojate Sackli 
TTITLE25=My Way
EXTD=
EXTT0=
EXTT1=
EXTT2=
EXTT3=
EXTT4=
EXTT5=
EXTT6=
EXTT7=
EXTT8=
EXTT9=
EXTT10=
EXTT11=
EXTT12=
EXTT13=
EXTT14=
EXTT15=
EXTT16=
EXTT17=
EXTT18=
EXTT19=
EXTT20=
EXTT21=
EXTT22=
EXTT23=
EXTT24=
EXTT25=
PLAYORDER=
